<svg width="140" height="70" viewBox="0 0 198 102" fill="none" xmlns="http://www.w3.org/2000/svg">
<mask id="path-1-inside-1" fill="white">
<path d="M94.3187 0.474523C95.5682 0.162786 96.8745 0.157303 98.1266 0.45854L189.871 22.5315C193.466 23.3963 196 26.6121 196 30.3095V54.0263C196 57.8774 193.256 61.1819 189.471 61.8899L99.4709 78.7249C98.4987 78.9067 97.5013 78.9067 96.5291 78.7249L6.52908 61.8899C2.74372 61.1819 0 57.8774 0 54.0263V30.2553C0 26.5829 2.50029 23.3822 6.06345 22.4932L94.3187 0.474523Z"/>
</mask>
<path d="M94.3187 0.474523C95.5682 0.162786 96.8745 0.157303 98.1266 0.45854L189.871 22.5315C193.466 23.3963 196 26.6121 196 30.3095V54.0263C196 57.8774 193.256 61.1819 189.471 61.8899L99.4709 78.7249C98.4987 78.9067 97.5013 78.9067 96.5291 78.7249L6.52908 61.8899C2.74372 61.1819 0 57.8774 0 54.0263V30.2553C0 26.5829 2.50029 23.3822 6.06345 22.4932L94.3187 0.474523Z" fill="#204A2C"/>
<path d="M6.52908 61.8899L-15.5348 179.844L-15.5348 179.844L6.52908 61.8899ZM99.4709 78.7249L121.535 196.679L99.4709 78.7249ZM96.5291 78.7249L74.4652 196.679L96.5291 78.7249ZM189.471 61.8899L167.407 -56.0642L189.471 61.8899ZM98.1266 0.45854L70.0567 117.129L98.1266 0.45854ZM94.3187 0.474523L65.2704 -115.957L94.3187 0.474523ZM70.0567 117.129L161.801 139.202L217.941 -94.1394L126.196 -116.212L70.0567 117.129ZM76 30.3095V54.0263H316V30.3095H76ZM167.407 -56.0642L77.4071 -39.2293L121.535 196.679L211.535 179.844L167.407 -56.0642ZM118.593 -39.2293L28.5929 -56.0642L-15.5348 179.844L74.4652 196.679L118.593 -39.2293ZM120 54.0263V30.2553H-120V54.0263H120ZM35.1117 138.924L123.367 116.906L65.2704 -115.957L-22.9848 -93.9379L35.1117 138.924ZM120 30.2553C120 81.6686 84.9958 126.479 35.1117 138.924L-22.9848 -93.9379C-79.9952 -79.7144 -120 -28.5028 -120 30.2553H120ZM28.5929 -56.0642C81.5879 -46.1513 120 0.111992 120 54.0263H-120C-120 115.643 -76.1005 168.515 -15.5348 179.844L28.5929 -56.0642ZM77.4071 -39.2293C91.0176 -41.7752 104.982 -41.7752 118.593 -39.2293L74.4652 196.679C90.0202 199.589 105.98 199.589 121.535 196.679L77.4071 -39.2293ZM76 54.0263C76 0.112011 114.412 -46.1513 167.407 -56.0642L211.535 179.844C272.101 168.515 316 115.643 316 54.0263H76ZM161.801 139.202C111.474 127.094 76 82.0736 76 30.3095H316C316 -28.8494 275.459 -80.3012 217.941 -94.1394L161.801 139.202ZM126.196 -116.212C106.163 -121.032 85.2625 -120.944 65.2704 -115.957L123.367 116.906C105.874 121.27 87.5858 121.347 70.0567 117.129L126.196 -116.212Z" fill="#204A2C" mask="url(#path-1-inside-1)"/>
<path d="M17.5654 49.4678V46.1991C17.5654 45.2579 18.3284 44.495 19.2695 44.495H20.0633C20.5661 44.495 20.9737 44.9025 20.9737 45.4053C20.9737 45.908 21.3812 46.3156 21.884 46.3156H24.9736C26.0781 46.3156 26.9736 45.4202 26.9736 44.3156V40.0446V34.0302C26.9736 33.028 27.7153 32.1805 28.7086 32.0478L33.7911 31.3686C34.9902 31.2083 36.056 32.1412 36.056 33.351V51.0288C36.056 52.2181 35.0243 53.1446 33.8418 53.0173L19.3512 51.4563C18.3354 51.3469 17.5654 50.4895 17.5654 49.4678Z" fill="white"/>
<path d="M52.0642 27.0687L54.8313 26.3695C56.0948 26.0502 57.3213 27.0053 57.3213 28.3085V53.6528C57.3213 54.8558 56.2669 55.7866 55.0732 55.6374L41.5071 53.9412C40.5063 53.816 39.7553 52.9653 39.7553 51.9566V31.5333C39.7553 30.6048 40.3943 29.7984 41.2982 29.5862L43.3686 29.1002C44.6237 28.8055 45.8257 29.7579 45.8257 31.0472V48.7302C45.8257 49.8347 46.7211 50.7302 47.8257 50.7302H48.5542C49.6588 50.7302 50.5542 49.8347 50.5542 48.7302V29.0078C50.5542 28.092 51.1763 27.2931 52.0642 27.0687Z" fill="white"/>
<path d="M80.9199 21.6346L62.7312 24.2755C61.7479 24.4183 61.0186 25.2612 61.0186 26.2547V39.3089C61.0186 40.2035 61.6126 40.9893 62.4734 41.2332L74.1401 44.5387C75.0008 44.7826 75.5949 45.5684 75.5949 46.463V49.6856C75.5949 50.7901 74.6995 51.6856 73.5949 51.6856H71.3753C70.2708 51.6856 69.3753 50.7901 69.3753 49.6856V49.1615C69.3753 48.0569 68.4799 47.1615 67.3753 47.1615H63.0186C61.914 47.1615 61.0186 48.0569 61.0186 49.1615V55.167C61.0186 56.152 61.7357 56.9904 62.7088 57.1429L80.8975 59.9945C82.1107 60.1847 83.2072 59.2467 83.2072 58.0187V42.2558C83.2072 41.3982 82.6604 40.6361 81.848 40.3613L70.7345 36.6024C69.9221 36.3277 69.3753 35.5655 69.3753 34.7079V31.7663C69.3753 30.7981 70.0688 29.969 71.0217 29.7978L81.5609 27.9045C82.5138 27.7333 83.2072 26.9042 83.2072 25.936V23.6138C83.2072 22.3949 82.1262 21.4595 80.9199 21.6346Z" fill="white"/>
<path d="M85.9814 27.197V22.3667C85.9814 21.528 86.5047 20.7784 87.2919 20.4893L96.4946 17.1095C96.9265 16.9509 97.3999 16.946 97.8349 17.0957L107.745 20.5063C108.553 20.7841 109.095 21.5437 109.095 22.3975V27.102C109.095 28.8972 106.913 29.7833 105.661 28.4966L105.436 28.2651C104.184 26.9784 102.002 27.8646 102.002 29.6597V61.0192C102.002 62.1237 101.107 63.0192 100.002 63.0192H94.3163C93.2118 63.0192 92.3163 62.1237 92.3163 61.0192V29.5648C92.3163 27.895 90.2441 27.1205 89.1489 28.3809C88.0537 29.6413 85.9814 28.8667 85.9814 27.197Z" fill="white"/>
<path d="M110.943 58.9045V23.5574C110.943 22.3582 111.991 21.4285 113.182 21.5717L119.316 22.3094C120.321 22.4302 121.077 23.2828 121.077 24.2951V57.9383C121.077 58.9227 120.361 59.7608 119.388 59.914L113.255 60.8802C112.041 61.0714 110.943 60.1332 110.943 58.9045Z" fill="white"/>
<path d="M125.876 55.8078V26.301C125.876 25.0729 126.972 24.1349 128.186 24.3251L134.087 25.2505C134.768 25.3572 135.346 25.8066 135.616 26.44L139.965 36.6116C140.821 38.6122 143.804 38.0012 143.804 35.8253V29.7286C143.804 28.4907 144.918 27.55 146.138 27.7567L149.032 28.2466C149.994 28.4095 150.698 29.2428 150.698 30.2186V53.1821C150.698 54.1521 150.002 54.9823 149.047 55.1515L142.948 56.2315C142.036 56.3929 141.133 55.9076 140.764 55.0583L139.016 51.029C138.152 49.0384 135.181 49.6552 135.181 51.8251V54.839C135.181 55.805 134.491 56.6329 133.54 56.8065L128.235 57.7753C127.007 57.9996 125.876 57.0563 125.876 55.8078Z" fill="white"/>
<path d="M110.943 58.9045V23.5574C110.943 22.3582 111.991 21.4285 113.182 21.5717L119.316 22.3094C120.321 22.4302 121.077 23.2828 121.077 24.2951V57.9383C121.077 58.9227 120.361 59.7608 119.388 59.914L113.255 60.8802C112.041 61.0714 110.943 60.1332 110.943 58.9045Z" stroke="white"/>
<path d="M125.876 55.8078V26.301C125.876 25.0729 126.972 24.1349 128.186 24.3251L134.087 25.2505C134.768 25.3572 135.346 25.8066 135.616 26.44L139.965 36.6116C140.821 38.6122 143.804 38.0012 143.804 35.8253V29.7286C143.804 28.4907 144.918 27.55 146.138 27.7567L149.032 28.2466C149.994 28.4095 150.698 29.2428 150.698 30.2186V53.1821C150.698 54.1521 150.002 54.9823 149.047 55.1515L142.948 56.2315C142.036 56.3929 141.133 55.9076 140.764 55.0583L139.016 51.029C138.152 49.0384 135.181 49.6552 135.181 51.8251V54.839C135.181 55.805 134.491 56.6329 133.54 56.8065L128.235 57.7753C127.007 57.9996 125.876 57.0563 125.876 55.8078Z" stroke="white"/>
<path d="M154.396 31.036C154.396 32.8624 156.847 33.4621 157.69 31.8423C158.295 30.6803 157.452 29.2905 156.142 29.2905C155.178 29.2905 154.396 30.072 154.396 31.036Z" fill="white"/>
<path d="M175.822 52.2251L160.407 54.6648C159.193 54.8569 158.095 53.9186 158.095 52.6893V49.9565C158.095 49.2001 158.708 48.5869 159.464 48.5869H161.448C162.204 48.5869 162.817 49.2001 162.817 49.9565H167.802C168.724 49.9565 169.47 49.2097 169.47 48.2884C169.47 47.3672 168.724 46.6204 167.802 46.6204H162.163C161.059 46.6204 160.163 45.725 160.163 44.6204L160.163 31.6055C160.163 30.3853 161.247 29.4495 162.454 29.6267L175.8 31.5855C176.782 31.7297 177.51 32.572 177.51 33.5643V36.9663C177.51 38.3151 176.202 39.2771 174.914 38.8756L169.157 37.0802C168.189 36.7784 167.206 37.5016 167.206 38.5155C167.206 39.2033 167.673 39.8035 168.339 39.9727L176.002 41.9183C176.889 42.1434 177.51 42.9418 177.51 43.8568V50.2497C177.51 51.2336 176.794 52.0713 175.822 52.2251Z" fill="white"/>
<path d="M97.0843 6.33734L185.224 26.8988C188.166 27.5851 190.247 30.2078 190.247 33.2288V51.2055C190.247 54.352 187.993 57.0466 184.896 57.603L99.7963 72.8922C99.0361 73.0288 98.2577 73.0288 97.4975 72.8922L12.3975 57.603C9.30058 57.0466 7.04688 54.352 7.04688 51.2055V33.1303C7.04688 30.1463 9.07874 27.5455 11.9742 26.8235L94.0349 6.36051C95.0351 6.11108 96.0803 6.10314 97.0843 6.33734Z" stroke="white" stroke-width="3"/>
<path d="M3.12 101H5.048V96.976H7.784L9.736 101H11.92L9.792 96.632C10.448 96.3387 10.936 95.8933 11.256 95.296C11.576 94.6987 11.736 94.0107 11.736 93.232C11.736 92.2773 11.496 91.464 11.016 90.792C10.5413 90.1147 9.80267 89.6987 8.8 89.544C8.65067 89.5173 8.488 89.5013 8.312 89.496C8.136 89.4853 7.992 89.48 7.88 89.48H3.12V101ZM5.048 95.176V91.288H7.8C7.90667 91.288 8.02667 91.2933 8.16 91.304C8.29333 91.3147 8.416 91.3333 8.528 91.36C8.848 91.44 9.09867 91.584 9.28 91.792C9.46667 91.9947 9.59733 92.224 9.672 92.48C9.752 92.736 9.792 92.9867 9.792 93.232C9.792 93.4773 9.752 93.728 9.672 93.984C9.59733 94.24 9.46667 94.4693 9.28 94.672C9.09867 94.8747 8.848 95.016 8.528 95.096C8.416 95.128 8.29333 95.1493 8.16 95.16C8.02667 95.1707 7.90667 95.176 7.8 95.176H5.048ZM20.4025 101H27.8425V99.192H22.3305V95.936H26.8825V94.128H22.3305V91.288H27.8425V89.48H20.4025V101ZM40.6365 101.24C41.4258 101.24 42.1645 101.107 42.8525 100.84C43.5405 100.573 44.0952 100.173 44.5165 99.64C44.9432 99.1067 45.1565 98.4427 45.1565 97.648C45.1565 97.0773 45.0498 96.6053 44.8365 96.232C44.6285 95.8533 44.3592 95.5493 44.0285 95.32C43.7032 95.0907 43.3645 94.912 43.0125 94.784C42.6658 94.656 42.3512 94.5547 42.0685 94.48L40.0045 93.904C39.7485 93.8347 39.4925 93.7493 39.2365 93.648C38.9805 93.5413 38.7672 93.4 38.5965 93.224C38.4258 93.0427 38.3405 92.8107 38.3405 92.528C38.3405 92.2293 38.4392 91.968 38.6365 91.744C38.8392 91.52 39.1032 91.3467 39.4285 91.224C39.7592 91.1013 40.1165 91.0453 40.5005 91.056C41.0925 91.072 41.6258 91.2453 42.1005 91.576C42.5752 91.9067 42.8738 92.376 42.9965 92.984L45.0685 92.624C44.8125 91.5573 44.2872 90.7333 43.4925 90.152C42.6978 89.5653 41.7085 89.2667 40.5245 89.256C39.7458 89.2507 39.0365 89.376 38.3965 89.632C37.7618 89.8827 37.2552 90.2587 36.8765 90.76C36.5032 91.2613 36.3165 91.8827 36.3165 92.624C36.3165 93.1307 36.3992 93.5573 36.5645 93.904C36.7352 94.2453 36.9512 94.5253 37.2125 94.744C37.4792 94.9627 37.7592 95.136 38.0525 95.264C38.3512 95.392 38.6285 95.4933 38.8845 95.568L41.8605 96.448C42.7138 96.704 43.1405 97.1467 43.1405 97.776C43.1405 98.128 43.0258 98.4293 42.7965 98.68C42.5725 98.9253 42.2792 99.112 41.9165 99.24C41.5538 99.368 41.1672 99.432 40.7565 99.432C40.0632 99.432 39.4498 99.2453 38.9165 98.872C38.3885 98.4987 38.0392 97.9707 37.8685 97.288L35.8685 97.592C35.9912 98.344 36.2685 98.9947 36.7005 99.544C37.1378 100.088 37.6925 100.507 38.3645 100.8C39.0418 101.093 39.7992 101.24 40.6365 101.24ZM56.3761 101H58.3041V91.288H62.0321V89.48H52.6481V91.288H56.3761V101ZM74.9032 101.24C76.0552 101.24 77.0419 100.989 77.8632 100.488C78.6899 99.9813 79.3219 99.2773 79.7592 98.376C80.2019 97.4747 80.4232 96.4293 80.4232 95.24C80.4232 94.0453 80.2019 93 79.7592 92.104C79.3219 91.2027 78.6899 90.5013 77.8632 90C77.0419 89.4933 76.0552 89.24 74.9032 89.24C73.7566 89.24 72.7699 89.4933 71.9432 90C71.1219 90.5013 70.4899 91.2027 70.0472 92.104C69.6099 93 69.3912 94.0453 69.3912 95.24C69.3912 96.4293 69.6099 97.4747 70.0472 98.376C70.4899 99.2773 71.1219 99.9813 71.9432 100.488C72.7699 100.989 73.7566 101.24 74.9032 101.24ZM74.9032 99.424C73.7459 99.408 72.8766 99.0213 72.2952 98.264C71.7139 97.5067 71.4259 96.4987 71.4312 95.24C71.4366 94.3973 71.5672 93.6613 71.8232 93.032C72.0792 92.4027 72.4632 91.9147 72.9752 91.568C73.4872 91.216 74.1299 91.0453 74.9032 91.056C76.0659 91.072 76.9352 91.4587 77.5112 92.216C78.0926 92.9733 78.3832 93.9813 78.3832 95.24C78.3832 96.0773 78.2526 96.8133 77.9912 97.448C77.7352 98.0773 77.3486 98.5653 76.8312 98.912C76.3192 99.2587 75.6766 99.4293 74.9032 99.424ZM88.7356 101H90.6636V96.976H93.3996L95.3516 101H97.5356L95.4076 96.632C96.0636 96.3387 96.5516 95.8933 96.8716 95.296C97.1916 94.6987 97.3516 94.0107 97.3516 93.232C97.3516 92.2773 97.1116 91.464 96.6316 90.792C96.157 90.1147 95.4183 89.6987 94.4156 89.544C94.2663 89.5173 94.1036 89.5013 93.9276 89.496C93.7516 89.4853 93.6076 89.48 93.4956 89.48H88.7356V101ZM90.6636 95.176V91.288H93.4156C93.5223 91.288 93.6423 91.2933 93.7756 91.304C93.909 91.3147 94.0316 91.3333 94.1436 91.36C94.4636 91.44 94.7143 91.584 94.8956 91.792C95.0823 91.9947 95.213 92.224 95.2876 92.48C95.3676 92.736 95.4076 92.9867 95.4076 93.232C95.4076 93.4773 95.3676 93.728 95.2876 93.984C95.213 94.24 95.0823 94.4693 94.8956 94.672C94.7143 94.8747 94.4636 95.016 94.1436 95.096C94.0316 95.128 93.909 95.1493 93.7756 95.16C93.6423 95.1707 93.5223 95.176 93.4156 95.176H90.6636ZM105.218 101H107.202L107.986 98.504H112.53L113.322 101H115.306L111.674 89.48H108.85L105.218 101ZM108.554 96.704L110.242 91.344L111.954 96.704H108.554ZM125.287 101H127.215V91.288H130.943V89.48H121.559V91.288H125.287V101ZM139.102 101H141.03V89.48H139.102V101ZM155.019 101.24C156.171 101.24 157.158 100.989 157.979 100.488C158.806 99.9813 159.438 99.2773 159.875 98.376C160.318 97.4747 160.539 96.4293 160.539 95.24C160.539 94.0453 160.318 93 159.875 92.104C159.438 91.2027 158.806 90.5013 157.979 90C157.158 89.4933 156.171 89.24 155.019 89.24C153.872 89.24 152.886 89.4933 152.059 90C151.238 90.5013 150.606 91.2027 150.163 92.104C149.726 93 149.507 94.0453 149.507 95.24C149.507 96.4293 149.726 97.4747 150.163 98.376C150.606 99.2773 151.238 99.9813 152.059 100.488C152.886 100.989 153.872 101.24 155.019 101.24ZM155.019 99.424C153.862 99.408 152.992 99.0213 152.411 98.264C151.83 97.5067 151.542 96.4987 151.547 95.24C151.552 94.3973 151.683 93.6613 151.939 93.032C152.195 92.4027 152.579 91.9147 153.091 91.568C153.603 91.216 154.246 91.0453 155.019 91.056C156.182 91.072 157.051 91.4587 157.627 92.216C158.208 92.9733 158.499 93.9813 158.499 95.24C158.499 96.0773 158.368 96.8133 158.107 97.448C157.851 98.0773 157.464 98.5653 156.947 98.912C156.435 99.2587 155.792 99.4293 155.019 99.424ZM168.851 101H170.803V92.88L176.147 101H178.099V89.48H176.147V97.6L170.803 89.48H168.851V101ZM191.32 101.24C192.109 101.24 192.848 101.107 193.536 100.84C194.224 100.573 194.778 100.173 195.2 99.64C195.626 99.1067 195.84 98.4427 195.84 97.648C195.84 97.0773 195.733 96.6053 195.52 96.232C195.312 95.8533 195.042 95.5493 194.712 95.32C194.386 95.0907 194.048 94.912 193.696 94.784C193.349 94.656 193.034 94.5547 192.752 94.48L190.688 93.904C190.432 93.8347 190.176 93.7493 189.92 93.648C189.664 93.5413 189.45 93.4 189.28 93.224C189.109 93.0427 189.024 92.8107 189.024 92.528C189.024 92.2293 189.122 91.968 189.32 91.744C189.522 91.52 189.786 91.3467 190.112 91.224C190.442 91.1013 190.8 91.0453 191.184 91.056C191.776 91.072 192.309 91.2453 192.784 91.576C193.258 91.9067 193.557 92.376 193.68 92.984L195.752 92.624C195.496 91.5573 194.97 90.7333 194.176 90.152C193.381 89.5653 192.392 89.2667 191.208 89.256C190.429 89.2507 189.72 89.376 189.08 89.632C188.445 89.8827 187.938 90.2587 187.56 90.76C187.186 91.2613 187 91.8827 187 92.624C187 93.1307 187.082 93.5573 187.248 93.904C187.418 94.2453 187.634 94.5253 187.896 94.744C188.162 94.9627 188.442 95.136 188.736 95.264C189.034 95.392 189.312 95.4933 189.568 95.568L192.544 96.448C193.397 96.704 193.824 97.1467 193.824 97.776C193.824 98.128 193.709 98.4293 193.48 98.68C193.256 98.9253 192.962 99.112 192.6 99.24C192.237 99.368 191.85 99.432 191.44 99.432C190.746 99.432 190.133 99.2453 189.6 98.872C189.072 98.4987 188.722 97.9707 188.552 97.288L186.552 97.592C186.674 98.344 186.952 98.9947 187.384 99.544C187.821 100.088 188.376 100.507 189.048 100.8C189.725 101.093 190.482 101.24 191.32 101.24Z" fill="#292929"/>
</svg>
