<svg width="160" height="80" viewBox="0 0 198 102" fill="none" xmlns="http://www.w3.org/2000/svg">
<path d="M95.0459 3.38506C95.8268 3.19022 96.6432 3.18679 97.4258 3.37507L189.171 25.448C191.417 25.9885 193.001 27.9984 193.001 30.3093V54.0261C193.001 56.433 191.286 58.4983 188.92 58.9408L98.9203 75.7758C98.3127 75.8894 97.6893 75.8894 97.0817 75.7758L7.08165 58.9408C4.7158 58.4983 3.00098 56.433 3.00098 54.0261V30.255C3.00098 27.9598 4.56366 25.9593 6.79063 25.4037L95.0459 3.38506Z" fill="white" stroke="#204A2C" stroke-width="6"/>
<path d="M23.001 50.5905V43.5734H26.1244V45.4608H31.623V38.96V30.9106L39.9466 29.6523V52.6552L23.001 50.5905Z" fill="#204A2C"/>
<path d="M53.6412 25.801L60.0742 24.0154V55.5262L43.3751 53.2329V28.4094L49.146 26.9214V50.1088H53.6412V25.801Z" fill="#204A2C"/>
<path d="M84.2162 20.2341L63.5049 23.5253V40.1735L77.1107 44.3924V51.2723H71.3053V46.6507H63.5049V56.5766L84.2162 60.1303V40.1735L71.3053 35.3943V29.2147L84.2162 26.6763V20.2341Z" fill="#204A2C"/>
<path d="M86.9197 31.4661L86.811 20.5009L97.5593 17.1011L107.81 20.2927L107.919 31.2579L101.403 24.0909L101.78 62.0615L92.9799 62.1487L93.8546 24.1657L86.9197 31.4661Z" fill="#204A2C"/>
<path d="M110.508 60.9706V20.2341L119.832 21.4771V59.3425L110.508 60.9706Z" fill="#204A2C"/>
<path d="M124.248 57.872V22.9476L132.811 24.4356L140.745 45.0051V26.4137L147.089 27.6042V54.4584L138.526 56.1389L132.811 41.5389V56.1389L124.248 57.872Z" fill="#204A2C"/>
<path d="M154.98 28.3218H150.677V37.4599L154.98 28.3218Z" fill="#204A2C"/>
<path d="M173.001 50.922L154.755 53.9856V48.9263V47.5609H159.193V48.9263H165.445V45.6002H156.699L156.699 28.3218L173.001 30.8601V38.6853L163.317 35.4817V38.6853L173.001 41.2937V50.922Z" fill="#204A2C"/>
<path d="M3.12 101H5.048V96.976H7.784L9.736 101H11.92L9.792 96.632C10.448 96.3387 10.936 95.8933 11.256 95.296C11.576 94.6987 11.736 94.0107 11.736 93.232C11.736 92.2773 11.496 91.464 11.016 90.792C10.5413 90.1147 9.80267 89.6987 8.8 89.544C8.65067 89.5173 8.488 89.5013 8.312 89.496C8.136 89.4853 7.992 89.48 7.88 89.48H3.12V101ZM5.048 95.176V91.288H7.8C7.90667 91.288 8.02667 91.2933 8.16 91.304C8.29333 91.3147 8.416 91.3333 8.528 91.36C8.848 91.44 9.09867 91.584 9.28 91.792C9.46667 91.9947 9.59733 92.224 9.672 92.48C9.752 92.736 9.792 92.9867 9.792 93.232C9.792 93.4773 9.752 93.728 9.672 93.984C9.59733 94.24 9.46667 94.4693 9.28 94.672C9.09867 94.8747 8.848 95.016 8.528 95.096C8.416 95.128 8.29333 95.1493 8.16 95.16C8.02667 95.1707 7.90667 95.176 7.8 95.176H5.048ZM20.4025 101H27.8425V99.192H22.3305V95.936H26.8825V94.128H22.3305V91.288H27.8425V89.48H20.4025V101ZM40.6365 101.24C41.4258 101.24 42.1645 101.107 42.8525 100.84C43.5405 100.573 44.0952 100.173 44.5165 99.64C44.9432 99.1067 45.1565 98.4427 45.1565 97.648C45.1565 97.0773 45.0498 96.6053 44.8365 96.232C44.6285 95.8533 44.3592 95.5493 44.0285 95.32C43.7032 95.0907 43.3645 94.912 43.0125 94.784C42.6658 94.656 42.3512 94.5547 42.0685 94.48L40.0045 93.904C39.7485 93.8347 39.4925 93.7493 39.2365 93.648C38.9805 93.5413 38.7672 93.4 38.5965 93.224C38.4258 93.0427 38.3405 92.8107 38.3405 92.528C38.3405 92.2293 38.4392 91.968 38.6365 91.744C38.8392 91.52 39.1032 91.3467 39.4285 91.224C39.7592 91.1013 40.1165 91.0453 40.5005 91.056C41.0925 91.072 41.6258 91.2453 42.1005 91.576C42.5752 91.9067 42.8738 92.376 42.9965 92.984L45.0685 92.624C44.8125 91.5573 44.2872 90.7333 43.4925 90.152C42.6978 89.5653 41.7085 89.2667 40.5245 89.256C39.7458 89.2507 39.0365 89.376 38.3965 89.632C37.7618 89.8827 37.2552 90.2587 36.8765 90.76C36.5032 91.2613 36.3165 91.8827 36.3165 92.624C36.3165 93.1307 36.3992 93.5573 36.5645 93.904C36.7352 94.2453 36.9512 94.5253 37.2125 94.744C37.4792 94.9627 37.7592 95.136 38.0525 95.264C38.3512 95.392 38.6285 95.4933 38.8845 95.568L41.8605 96.448C42.7138 96.704 43.1405 97.1467 43.1405 97.776C43.1405 98.128 43.0258 98.4293 42.7965 98.68C42.5725 98.9253 42.2792 99.112 41.9165 99.24C41.5538 99.368 41.1672 99.432 40.7565 99.432C40.0632 99.432 39.4498 99.2453 38.9165 98.872C38.3885 98.4987 38.0392 97.9707 37.8685 97.288L35.8685 97.592C35.9912 98.344 36.2685 98.9947 36.7005 99.544C37.1378 100.088 37.6925 100.507 38.3645 100.8C39.0418 101.093 39.7992 101.24 40.6365 101.24ZM56.3761 101H58.3041V91.288H62.0321V89.48H52.6481V91.288H56.3761V101ZM74.9032 101.24C76.0552 101.24 77.0419 100.989 77.8632 100.488C78.6899 99.9813 79.3219 99.2773 79.7592 98.376C80.2019 97.4747 80.4232 96.4293 80.4232 95.24C80.4232 94.0453 80.2019 93 79.7592 92.104C79.3219 91.2027 78.6899 90.5013 77.8632 90C77.0419 89.4933 76.0552 89.24 74.9032 89.24C73.7566 89.24 72.7699 89.4933 71.9432 90C71.1219 90.5013 70.4899 91.2027 70.0472 92.104C69.6099 93 69.3912 94.0453 69.3912 95.24C69.3912 96.4293 69.6099 97.4747 70.0472 98.376C70.4899 99.2773 71.1219 99.9813 71.9432 100.488C72.7699 100.989 73.7566 101.24 74.9032 101.24ZM74.9032 99.424C73.7459 99.408 72.8766 99.0213 72.2952 98.264C71.7139 97.5067 71.4259 96.4987 71.4312 95.24C71.4366 94.3973 71.5672 93.6613 71.8232 93.032C72.0792 92.4027 72.4632 91.9147 72.9752 91.568C73.4872 91.216 74.1299 91.0453 74.9032 91.056C76.0659 91.072 76.9352 91.4587 77.5112 92.216C78.0926 92.9733 78.3832 93.9813 78.3832 95.24C78.3832 96.0773 78.2526 96.8133 77.9912 97.448C77.7352 98.0773 77.3486 98.5653 76.8312 98.912C76.3192 99.2587 75.6766 99.4293 74.9032 99.424ZM88.7356 101H90.6636V96.976H93.3996L95.3516 101H97.5356L95.4076 96.632C96.0636 96.3387 96.5516 95.8933 96.8716 95.296C97.1916 94.6987 97.3516 94.0107 97.3516 93.232C97.3516 92.2773 97.1116 91.464 96.6316 90.792C96.157 90.1147 95.4183 89.6987 94.4156 89.544C94.2663 89.5173 94.1036 89.5013 93.9276 89.496C93.7516 89.4853 93.6076 89.48 93.4956 89.48H88.7356V101ZM90.6636 95.176V91.288H93.4156C93.5223 91.288 93.6423 91.2933 93.7756 91.304C93.909 91.3147 94.0316 91.3333 94.1436 91.36C94.4636 91.44 94.7143 91.584 94.8956 91.792C95.0823 91.9947 95.213 92.224 95.2876 92.48C95.3676 92.736 95.4076 92.9867 95.4076 93.232C95.4076 93.4773 95.3676 93.728 95.2876 93.984C95.213 94.24 95.0823 94.4693 94.8956 94.672C94.7143 94.8747 94.4636 95.016 94.1436 95.096C94.0316 95.128 93.909 95.1493 93.7756 95.16C93.6423 95.1707 93.5223 95.176 93.4156 95.176H90.6636ZM105.218 101H107.202L107.986 98.504H112.53L113.322 101H115.306L111.674 89.48H108.85L105.218 101ZM108.554 96.704L110.242 91.344L111.954 96.704H108.554ZM125.287 101H127.215V91.288H130.943V89.48H121.559V91.288H125.287V101ZM139.102 101H141.03V89.48H139.102V101ZM155.019 101.24C156.171 101.24 157.158 100.989 157.979 100.488C158.806 99.9813 159.438 99.2773 159.875 98.376C160.318 97.4747 160.539 96.4293 160.539 95.24C160.539 94.0453 160.318 93 159.875 92.104C159.438 91.2027 158.806 90.5013 157.979 90C157.158 89.4933 156.171 89.24 155.019 89.24C153.872 89.24 152.886 89.4933 152.059 90C151.238 90.5013 150.606 91.2027 150.163 92.104C149.726 93 149.507 94.0453 149.507 95.24C149.507 96.4293 149.726 97.4747 150.163 98.376C150.606 99.2773 151.238 99.9813 152.059 100.488C152.886 100.989 153.872 101.24 155.019 101.24ZM155.019 99.424C153.862 99.408 152.992 99.0213 152.411 98.264C151.83 97.5067 151.542 96.4987 151.547 95.24C151.552 94.3973 151.683 93.6613 151.939 93.032C152.195 92.4027 152.579 91.9147 153.091 91.568C153.603 91.216 154.246 91.0453 155.019 91.056C156.182 91.072 157.051 91.4587 157.627 92.216C158.208 92.9733 158.499 93.9813 158.499 95.24C158.499 96.0773 158.368 96.8133 158.107 97.448C157.851 98.0773 157.464 98.5653 156.947 98.912C156.435 99.2587 155.792 99.4293 155.019 99.424ZM168.851 101H170.803V92.88L176.147 101H178.099V89.48H176.147V97.6L170.803 89.48H168.851V101ZM191.32 101.24C192.109 101.24 192.848 101.107 193.536 100.84C194.224 100.573 194.778 100.173 195.2 99.64C195.626 99.1067 195.84 98.4427 195.84 97.648C195.84 97.0773 195.733 96.6053 195.52 96.232C195.312 95.8533 195.042 95.5493 194.712 95.32C194.386 95.0907 194.048 94.912 193.696 94.784C193.349 94.656 193.034 94.5547 192.752 94.48L190.688 93.904C190.432 93.8347 190.176 93.7493 189.92 93.648C189.664 93.5413 189.45 93.4 189.28 93.224C189.109 93.0427 189.024 92.8107 189.024 92.528C189.024 92.2293 189.122 91.968 189.32 91.744C189.522 91.52 189.786 91.3467 190.112 91.224C190.442 91.1013 190.8 91.0453 191.184 91.056C191.776 91.072 192.309 91.2453 192.784 91.576C193.258 91.9067 193.557 92.376 193.68 92.984L195.752 92.624C195.496 91.5573 194.97 90.7333 194.176 90.152C193.381 89.5653 192.392 89.2667 191.208 89.256C190.429 89.2507 189.72 89.376 189.08 89.632C188.445 89.8827 187.938 90.2587 187.56 90.76C187.186 91.2613 187 91.8827 187 92.624C187 93.1307 187.082 93.5573 187.248 93.904C187.418 94.2453 187.634 94.5253 187.896 94.744C188.162 94.9627 188.442 95.136 188.736 95.264C189.034 95.392 189.312 95.4933 189.568 95.568L192.544 96.448C193.397 96.704 193.824 97.1467 193.824 97.776C193.824 98.128 193.709 98.4293 193.48 98.68C193.256 98.9253 192.962 99.112 192.6 99.24C192.237 99.368 191.85 99.432 191.44 99.432C190.746 99.432 190.133 99.2453 189.6 98.872C189.072 98.4987 188.722 97.9707 188.552 97.288L186.552 97.592C186.674 98.344 186.952 98.9947 187.384 99.544C187.821 100.088 188.376 100.507 189.048 100.8C189.725 101.093 190.482 101.24 191.32 101.24Z" fill="#292929"/>
</svg>
